<svg width="40" height="40" viewBox="0 0 40 40" fill="none" xmlns="http://www.w3.org/2000/svg">
<g id="2674096_object_email_web_essential_icon">
<g id="8-Email">
<path id="Vector" d="M37.5 5.83301H2.5C1.83696 5.83301 1.20107 6.0964 0.732233 6.56524C0.263392 7.03408 0 7.66997 0 8.33301L0 31.6663C0 32.3294 0.263392 32.9653 0.732233 33.4341C1.20107 33.9029 1.83696 34.1663 2.5 34.1663H37.5C38.163 34.1663 38.7989 33.9029 39.2678 33.4341C39.7366 32.9653 40 32.3294 40 31.6663V8.33301C40 7.66997 39.7366 7.03408 39.2678 6.56524C38.7989 6.0964 38.163 5.83301 37.5 5.83301ZM36.9667 7.49967L20 20.6163L3.03333 7.49967H36.9667ZM1.66667 31.3247V8.54967L14.5083 18.4747L1.66667 31.3247ZM2.84167 32.4997L15.8333 19.508L19.4833 22.333C19.629 22.4452 19.8078 22.506 19.9917 22.506C20.1756 22.506 20.3543 22.4452 20.5 22.333L24.1667 19.508L37.1583 32.4997H2.84167ZM38.3333 31.3247L25.4917 18.4747L38.3333 8.54967V31.3247Z" fill="white"/>
</g>
</g>
</svg>
