<svg width="40" height="40" viewBox="0 0 40 40" fill="none" xmlns="http://www.w3.org/2000/svg">
<g id="2849835_phone_telephone_cell_call_communication_icon">
<g id="1">
<path id="Vector" d="M27.2445 35.1613C26.0224 35.1523 24.8056 34.9989 23.6195 34.7043C19.5234 33.716 15.3055 31.209 11.7445 27.6449C8.18359 24.0809 5.67343 19.8621 4.68515 15.7699C3.64452 11.4653 4.38671 7.78244 6.77265 5.3965L7.4539 4.71525C8.07199 4.0984 8.90956 3.75195 9.78281 3.75195C10.656 3.75195 11.4936 4.0984 12.1117 4.71525L16.0266 8.62931C16.6438 9.2472 16.9905 10.0849 16.9905 10.9582C16.9905 11.8316 16.6438 12.6692 16.0266 13.2871L13.7141 15.5988C14.8226 17.5442 16.3305 19.491 18.1125 21.2731C19.8945 23.0551 21.843 24.5637 23.7875 25.6723L26.0992 23.3598C26.405 23.0539 26.7681 22.8112 27.1677 22.6456C27.5673 22.4801 27.9956 22.3949 28.4281 22.3949C28.8607 22.3949 29.289 22.4801 29.6886 22.6456C30.0882 22.8112 30.4512 23.0539 30.757 23.3598L34.6711 27.2738C35.2885 27.8915 35.6353 28.7291 35.6353 29.6024C35.6353 30.4757 35.2885 31.3132 34.6711 31.9309L33.9891 32.6121C32.307 34.2973 29.9789 35.1613 27.2445 35.1613ZM9.78281 6.09416C9.65807 6.09354 9.53446 6.11782 9.41923 6.16558C9.30399 6.21333 9.19944 6.28361 9.11171 6.37228L8.42968 7.05353C6.64296 8.84025 6.12109 11.741 6.96015 15.2168C7.84843 18.8988 10.1351 22.7246 13.3984 25.9871C16.6617 29.2496 20.4867 31.534 24.1695 32.4254C27.6461 33.2645 30.5453 32.7426 32.332 30.9559L33.0133 30.2746C33.1913 30.0965 33.2913 29.855 33.2913 29.6031C33.2913 29.3513 33.1913 29.1098 33.0133 28.9317L29.1 25.0176C28.9219 24.8396 28.6803 24.7396 28.4285 24.7396C28.1767 24.7396 27.9352 24.8396 27.757 25.0176L24.8266 27.9481C24.6507 28.124 24.4235 28.2394 24.1777 28.2776C23.9319 28.3158 23.6803 28.2748 23.4594 28.1606C21.057 26.9184 18.6352 25.1098 16.4555 22.9301C14.2758 20.7504 12.4711 18.3301 11.2258 15.9278C11.1114 15.7069 11.0703 15.4554 11.1084 15.2096C11.1464 14.9638 11.2617 14.7365 11.4375 14.5606L14.3687 11.6301C14.5467 11.452 14.6467 11.2104 14.6467 10.9586C14.6467 10.7068 14.5467 10.4653 14.3687 10.2871L10.4547 6.37228C10.3667 6.28376 10.262 6.21359 10.1466 6.16585C10.0313 6.11811 9.90763 6.09374 9.78281 6.09416Z" fill="white"/>
<path id="Vector_2" d="M28.4961 21.073C28.1853 21.073 27.8872 20.9496 27.6675 20.7298C27.4477 20.51 27.3242 20.212 27.3242 19.9012C27.3219 17.8453 26.5043 15.8743 25.0507 14.4206C23.5971 12.9668 21.6261 12.149 19.5703 12.1465C19.2595 12.1465 18.9614 12.023 18.7417 11.8032C18.5219 11.5835 18.3984 11.2854 18.3984 10.9746C18.3984 10.6638 18.5219 10.3657 18.7417 10.146C18.9614 9.9262 19.2595 9.80273 19.5703 9.80273C25.1383 9.80273 29.668 14.334 29.668 19.9012C29.668 20.212 29.5445 20.51 29.3247 20.7298C29.105 20.9496 28.8069 21.073 28.4961 21.073Z" fill="white"/>
<path id="Vector_3" d="M33.4492 21.073C33.1384 21.073 32.8403 20.9496 32.6206 20.7298C32.4008 20.51 32.2773 20.212 32.2773 19.9012C32.2773 12.8941 26.5742 7.19336 19.5703 7.19336C19.2595 7.19336 18.9614 7.06989 18.7417 6.85013C18.5219 6.63036 18.3984 6.33228 18.3984 6.02148C18.3984 5.71068 18.5219 5.41261 18.7417 5.19284C18.9614 4.97307 19.2595 4.84961 19.5703 4.84961C27.8695 4.84961 34.6211 11.602 34.6211 19.9012C34.6211 20.212 34.4976 20.51 34.2779 20.7298C34.0581 20.9496 33.76 21.073 33.4492 21.073Z" fill="white"/>
</g>
</g>
</svg>
